<svg width="241" height="54" viewBox="0 0 241 54" fill="none" xmlns="http://www.w3.org/2000/svg">
<path d="M188.515 32.8478C188.434 36.1581 185.694 38.7773 182.389 38.6958C179.2 38.6178 176.634 36.0447 176.556 32.8478V20.8506H173.562V32.8478C173.566 37.8133 177.585 41.836 182.537 41.8325C187.486 41.8289 191.495 37.8098 191.498 32.8478V20.8506H188.515V32.8478Z" fill="white"/>
<path d="M128.719 11.9336H125.707V41.8399H128.719V11.9336Z" fill="white"/>
<path d="M83.7766 20.8509C81.5779 20.8474 79.4569 21.659 77.8203 23.1298V11.9336H74.8086V41.8399H77.8203V29.3748C78.1172 26.0786 81.0229 23.6473 84.3103 23.945C87.3645 24.2215 89.7116 26.7698 89.7505 29.8426V41.8399H92.7375V29.8426C92.7304 24.8807 88.7254 20.8615 83.7766 20.8509Z" fill="white"/>
<path d="M207.324 29.8638L206.617 29.7433C204.238 29.3358 201.276 28.8218 201.209 26.6776C201.184 26.0573 201.421 25.4513 201.863 25.0153C202.75 24.1009 204.514 23.5622 206.585 23.5622H206.737C208.925 23.5622 210.763 23.8918 212.63 25.5009L212.959 25.7844L214.786 23.8741L214.433 23.5586C212.471 21.7546 209.876 20.8367 206.73 20.8367H206.585C203.729 20.8367 201.283 21.6589 199.841 23.0908C198.872 24.0513 198.345 25.3697 198.388 26.7343C198.434 31.1043 202.898 31.8344 206.493 32.4051C210.088 32.9757 212.64 33.5428 212.573 35.7969C212.46 38.7422 208.529 39.0576 206.847 39.0576C203.909 39.0576 201.332 37.8951 199.95 35.9422L199.653 35.5275L197.532 37.3883L197.752 37.7179C199.459 40.291 202.849 41.8221 206.815 41.8221C208.798 41.8221 215.277 41.3968 215.433 35.9493C215.649 31.2319 210.834 30.4416 207.324 29.8638Z" fill="white"/>
<path d="M143.626 20.8506C138.677 20.8577 134.665 24.8804 134.658 29.8423V41.8396H137.648V29.8423C137.729 26.532 140.469 23.9128 143.774 23.9943C146.962 24.0723 149.529 26.6454 149.607 29.8423V41.8396H152.594V29.8423C152.586 24.8804 148.574 20.8577 143.626 20.8506Z" fill="white"/>
<path d="M158.617 20.8506C156.673 20.8471 154.778 21.485 153.226 22.6617C153.834 23.4769 154.336 24.3629 154.722 25.3057C157.221 23.1437 160.992 23.4237 163.149 25.9295C164.085 27.0176 164.602 28.4069 164.598 29.8423V41.8396H167.585V29.8423C167.578 24.8804 163.566 20.8577 158.617 20.8506Z" fill="white"/>
<path d="M109.228 23.8526C113.356 23.8526 116.7 27.2054 116.7 31.3451C116.7 35.4847 113.356 38.8376 109.228 38.8376C105.099 38.8376 101.755 35.4847 101.755 31.3451C101.762 27.2089 105.102 23.8596 109.228 23.8526ZM109.228 20.8506C103.448 20.8506 98.7609 25.5502 98.7609 31.3451C98.7609 37.1399 103.448 41.8396 109.228 41.8396C115.007 41.8396 119.694 37.1399 119.694 31.3451C119.694 25.5502 115.007 20.8506 109.228 20.8506Z" fill="white"/>
<path d="M224.405 29.8426V11.9336H221.382V41.8399H224.405V32.8623H227.416L236.42 41.8399H240.453L228.367 29.8426H224.405Z" fill="white"/>
<path d="M240.453 20.8367H236.31L230.117 26.589L232.096 28.3965L240.453 20.8367Z" fill="white"/>
<path fill-rule="evenodd" clip-rule="evenodd" d="M0 0V54H53.8574V0H0ZM27.6816 40.1881H25.1612V29.4668C25.1612 26.6775 22.906 24.4163 20.124 24.4163C17.3421 24.4163 15.0868 26.6775 15.0868 29.4668V40.1881H12.5665V13.5H15.0975V23.8031C18.194 21.0102 22.959 21.2619 25.7445 24.3631C27.0029 25.7631 27.6922 27.5883 27.6816 29.4739V40.1881ZM41.2909 29.1478V39.8656H38.7705V29.1478C38.7847 26.362 36.5471 24.0937 33.7687 24.076C32.2487 24.0689 30.8064 24.7494 29.845 25.9296C29.5975 25.2456 29.2723 24.597 28.8729 23.9909L28.6007 23.5834C29.9934 22.272 31.828 21.5454 33.7369 21.5419H33.7616C33.9808 21.5419 34.1964 21.5419 34.4155 21.5773H34.5817C34.7973 21.6021 35.0094 21.634 35.218 21.6766C35.2639 21.6766 35.3063 21.6978 35.3523 21.7085C35.5255 21.7439 35.7058 21.7935 35.879 21.8431L36.031 21.8892C36.2254 21.953 36.4163 22.0203 36.6001 22.0983L36.7839 22.1763C36.9324 22.2436 37.0808 22.3181 37.2293 22.396C37.2823 22.4208 37.3354 22.4492 37.3884 22.4811C37.5474 22.5697 37.6994 22.6654 37.855 22.7646L38.0565 22.9029C38.1873 22.995 38.3216 23.0942 38.4488 23.197L38.6786 23.392C38.7705 23.4735 38.8589 23.555 38.9437 23.6401C39.0286 23.7251 39.0851 23.7712 39.1523 23.8421C39.2194 23.913 39.3785 24.0902 39.5058 24.1965L39.7037 24.4446L39.8769 24.6785C39.937 24.76 39.9936 24.838 40.0466 24.9231C40.8702 26.1671 41.3086 27.6238 41.305 29.1159L41.2909 29.1478Z" fill="white"/>
</svg>
