<svg width="243" height="56" viewBox="0 0 243 56" fill="none" xmlns="http://www.w3.org/2000/svg">
<path d="M174.518 43.5451C171.783 43.5841 169.135 42.5861 167.097 40.7492C166.146 39.8806 165.386 38.8211 164.866 37.6388C164.345 36.4566 164.077 35.1777 164.077 33.8845C164.077 32.5914 164.345 31.3125 164.866 30.1302C165.386 28.948 166.146 27.8885 167.097 27.0199C169.155 25.2169 171.791 24.2239 174.518 24.2239C177.246 24.2239 179.881 25.2169 181.939 27.0199C182.89 27.8884 183.651 28.9479 184.171 30.1301C184.691 31.3124 184.96 32.5913 184.96 33.8845C184.96 35.1778 184.691 36.4567 184.171 37.6389C183.651 38.8212 182.89 39.8807 181.939 40.7492C179.901 42.5863 177.252 43.5843 174.518 43.5451ZM174.518 30.0567C173.766 30.0569 173.032 30.2815 172.407 30.7021C171.782 31.1227 171.295 31.7205 171.008 32.4198C170.72 33.119 170.645 33.8885 170.792 34.6307C170.939 35.373 171.301 36.0548 171.832 36.5899C172.364 37.125 173.041 37.4894 173.778 37.6369C174.515 37.7845 175.279 37.7087 175.973 37.419C176.667 37.1293 177.261 36.6388 177.678 36.0095C178.096 35.3802 178.318 34.6404 178.318 33.8835C178.324 33.3793 178.229 32.8791 178.04 32.4122C177.851 31.9453 177.571 31.5211 177.217 31.1645C176.863 30.808 176.442 30.5262 175.979 30.3358C175.515 30.1454 175.018 30.0502 174.518 30.0557V30.0567ZM137.143 43.5451C134.219 43.5451 131.932 42.8494 130.345 41.478C129.576 40.7827 128.969 39.9242 128.569 38.9645C128.168 38.0047 127.984 36.9675 128.03 35.9275V24.5944H134.671V35.0722C134.671 35.7378 134.934 36.3762 135.401 36.8468C135.868 37.3175 136.502 37.5819 137.163 37.5819C137.824 37.5819 138.458 37.3175 138.925 36.8468C139.393 36.3762 139.655 35.7378 139.655 35.0722V24.5944H146.297V35.9265C146.341 36.9681 146.155 38.0065 145.751 38.9665C145.348 39.9266 144.737 40.7841 143.963 41.477C142.009 42.9658 139.589 43.6996 137.143 43.5451ZM116.297 43.5451C112.785 43.5451 110.093 42.6044 108.296 40.7492C106.616 38.8745 105.739 36.4072 105.857 33.8845C105.847 32.5873 106.076 31.2996 106.533 30.0868C106.97 28.9368 107.641 27.892 108.504 27.0199C109.5 26.0769 110.674 25.3439 111.955 24.8638C113.236 24.3837 114.6 24.1662 115.966 24.224C117.188 24.1703 118.409 24.3619 119.557 24.7878C120.705 25.2137 121.757 25.8653 122.653 26.7046C123.517 27.6413 124.187 28.7427 124.623 29.9441C125.059 31.1454 125.251 32.4224 125.19 33.6998L125.116 35.2227H112.589C112.943 37.2536 114.184 38.4182 116.002 38.4182C116.747 38.479 117.493 38.3087 118.14 37.93C118.786 37.5513 119.302 36.9825 119.617 36.2999L124.82 38.4553C124.14 40.0172 122.981 41.3189 121.513 42.1697C119.928 43.0897 118.127 43.5647 116.297 43.5451ZM115.781 29.1271C115.13 29.0759 114.482 29.2561 113.949 29.6364C113.417 30.0166 113.034 30.5727 112.866 31.2081H118.603C118.479 30.5671 118.119 29.9967 117.596 29.6109C117.073 29.2251 116.424 29.0523 115.78 29.1271H115.781ZM82.7216 43.1736H75.8596V15.3044H83.0167L95.709 32.9911V15.3044H102.574V43.1726H95.3771L82.7216 25.4116V43.1726V43.1736ZM156.585 43.1736H149.945V24.5944H156.587V27.1393C157.007 26.3329 157.63 25.6522 158.395 25.166C159.159 24.6799 160.038 24.4055 160.941 24.3706C161.383 24.3612 161.823 24.4372 162.237 24.5944V30.39C161.716 30.2742 161.184 30.212 160.65 30.2042C158.071 30.2042 156.592 31.7884 156.592 34.5511V43.1726L156.585 43.1736Z" fill="white"/>
<path d="M224.56 35.9428V24.6012H231.191V35.0868C231.144 35.4317 231.175 35.7829 231.28 36.1144C231.385 36.4459 231.563 36.7494 231.8 37.0027C232.036 37.2559 232.326 37.4524 232.648 37.5777C232.97 37.7031 233.315 37.7541 233.659 37.727C234.005 37.7552 234.353 37.7053 234.677 37.5809C235.001 37.4566 235.294 37.2609 235.534 37.008C235.774 36.7552 235.955 36.4516 236.064 36.1192C236.173 35.7869 236.207 35.4342 236.165 35.0868V24.6012H242.797V35.9428C242.797 40.5913 239.628 43.5651 233.66 43.5651C227.692 43.5651 224.56 40.5913 224.56 35.9428ZM214.281 43.1934V15.3041H220.914V43.1934H214.281ZM189.561 43.1934V15.3041H201.313C206.066 15.3041 209.787 18.094 209.787 23.1505C209.852 24.2752 209.603 25.3958 209.069 26.3851C208.535 27.3744 207.737 28.1927 206.765 28.7474C209.381 29.7701 211.113 31.8709 211.113 35.4967C211.113 40.5541 207.43 43.1944 202.752 43.1944L189.561 43.1934ZM196.413 37.1654H201.35C203.671 37.1654 204.26 35.8272 204.26 34.488C204.26 33.1488 203.671 31.8106 201.35 31.8106H196.413V37.1654ZM196.413 26.2328H200.245C202.344 26.2328 203.008 25.0061 203.008 23.7784C203.008 22.5507 202.344 21.332 200.245 21.332H196.413V26.2328Z" fill="white"/>
<path d="M7.51 15.02C11.6577 15.02 15.02 11.6577 15.02 7.51C15.02 3.36234 11.6577 0 7.51 0C3.36234 0 0 3.36234 0 7.51C0 11.6577 3.36234 15.02 7.51 15.02Z" fill="white"/>
<path d="M7.51 35.5018C11.6577 35.5018 15.02 32.1395 15.02 27.9918C15.02 23.8442 11.6577 20.4818 7.51 20.4818C3.36234 20.4818 0 23.8442 0 27.9918C0 32.1395 3.36234 35.5018 7.51 35.5018Z" fill="white"/>
<path d="M7.51 55.9834C11.6577 55.9834 15.02 52.621 15.02 48.4734C15.02 44.3257 11.6577 40.9634 7.51 40.9634C3.36234 40.9634 0 44.3257 0 48.4734C0 52.621 3.36234 55.9834 7.51 55.9834Z" fill="white"/>
<path d="M27.9919 15.02C32.1396 15.02 35.5019 11.6577 35.5019 7.51C35.5019 3.36234 32.1396 0 27.9919 0C23.8443 0 20.4819 3.36234 20.4819 7.51C20.4819 11.6577 23.8443 15.02 27.9919 15.02Z" fill="white"/>
<path d="M28.3334 38.2327C33.8008 38.2327 38.233 33.8005 38.233 28.3331C38.233 22.8658 33.8008 18.4336 28.3334 18.4336C22.8661 18.4336 18.4339 22.8658 18.4339 28.3331C18.4339 33.8005 22.8661 38.2327 28.3334 38.2327Z" fill="white"/>
<path d="M27.9917 55.9834C32.1393 55.9834 35.5017 52.621 35.5017 48.4734C35.5017 44.3257 32.1393 40.9634 27.9917 40.9634C23.844 40.9634 20.4817 44.3257 20.4817 48.4734C20.4817 52.621 23.844 55.9834 27.9917 55.9834Z" fill="white"/>
<path d="M48.4736 15.02C52.6213 15.02 55.9836 11.6577 55.9836 7.51C55.9836 3.36234 52.6213 0 48.4736 0C44.326 0 40.9636 3.36234 40.9636 7.51C40.9636 11.6577 44.326 15.02 48.4736 15.02Z" fill="white"/>
<path d="M48.4736 35.5018C52.6213 35.5018 55.9836 32.1395 55.9836 27.9918C55.9836 23.8442 52.6213 20.4818 48.4736 20.4818C44.326 20.4818 40.9636 23.8442 40.9636 27.9918C40.9636 32.1395 44.326 35.5018 48.4736 35.5018Z" fill="white"/>
<path d="M48.4736 55.9834C52.6213 55.9834 55.9836 52.621 55.9836 48.4734C55.9836 44.3257 52.6213 40.9634 48.4736 40.9634C44.326 40.9634 40.9636 44.3257 40.9636 48.4734C40.9636 52.621 44.326 55.9834 48.4736 55.9834Z" fill="#EEF4FE"/>
<path d="M7.91337 16.0559C7.91337 16.0559 12.6985 15.6816 15.8983 18.7262C19.0981 21.7707 18.3463 27.4241 18.3463 27.4241L27.6993 18.7256C27.6993 18.7256 22.8739 18.8589 19.7016 15.6047C17.6195 13.3082 15.9918 10.6379 14.9044 7.73512L7.91337 16.0559Z" fill="white"/>
<path d="M2.79508 12.8565C2.79508 12.8565 6.04486 14.7558 5.88237 17.5393C5.71988 20.3228 2.79508 22.1887 2.79508 22.1887H11.3544C11.3544 22.1887 8.58529 20.3576 8.58529 17.7762C8.58529 15.1948 12.2215 12.6305 12.2215 12.6305L2.79508 12.8565Z" fill="white"/>
<path d="M45.3869 42.8557C46.0657 42.3572 46.6141 41.7023 46.9857 40.9466C47.3573 40.1908 47.5411 39.3566 47.5214 38.5146C47.4084 35.6755 44.34 33.7483 44.34 33.7483L53.078 33.8714C53.078 33.8714 50.274 35.69 50.2281 38.3209C50.1822 40.9517 52.9189 42.9872 52.9189 42.9872L45.3869 42.8557Z" fill="white"/>
<path d="M48.8627 20.6792C45.6508 19.9009 42.6947 18.3052 40.2816 16.0471C36.4128 12.3451 35.3327 6.14979 35.3327 6.14979L28.6877 14.9264C28.6877 14.9264 34.1549 15.115 37.8437 18.4364C41.5325 21.7579 41.0617 27.1151 41.0617 27.1151L48.8627 20.6792Z" fill="white"/>
<path d="M6.78932 35.4265C10.2162 36.3824 13.3612 38.1524 15.9566 40.5857C20.1559 44.5855 20.6185 50.2487 20.6185 50.2487L27.8551 42.329C24.7026 42.0723 21.7248 40.7755 19.3895 38.6423C15.394 35.0447 14.6836 29.072 14.6836 29.072L6.78932 35.4265Z" fill="white"/>
<path d="M48.3183 41.0719C48.3183 41.0719 43.5327 41.4458 40.3334 38.4017C37.1341 35.3576 37.8877 29.7013 37.8877 29.7013L28.5342 38.3993C28.5342 38.3993 33.3616 38.2679 36.53 41.5184C38.612 43.8148 40.2398 46.4852 41.3271 49.3879L48.3183 41.0719Z" fill="white"/>
</svg>
