<svg width="209" height="63" viewBox="0 0 209 63" fill="none" xmlns="http://www.w3.org/2000/svg">
<g clip-path="url(#clip0)">
<path d="M38.4214 44.2427C41.6364 44.2427 44.2428 41.6363 44.2428 38.4213C44.2428 35.2062 41.6364 32.5999 38.4214 32.5999C35.2063 32.5999 32.5999 35.2062 32.5999 38.4213C32.5999 41.6363 35.2063 44.2427 38.4214 44.2427Z" fill="#335C98"/>
<path d="M22.1214 29.107C25.9795 29.107 29.1071 25.9794 29.1071 22.1213C29.1071 18.2632 25.9795 15.1356 22.1214 15.1356C18.2633 15.1356 15.1357 18.2632 15.1357 22.1213C15.1357 25.9794 18.2633 29.107 22.1214 29.107Z" fill="#387EE8"/>
<path d="M5.82141 27.9427C9.03649 27.9427 11.6428 25.3364 11.6428 22.1213C11.6428 18.9063 9.03649 16.2999 5.82141 16.2999C2.60633 16.2999 0 18.9063 0 22.1213C0 25.3364 2.60633 27.9427 5.82141 27.9427Z" fill="#387EE8"/>
<path d="M22.1213 11.6428C25.3364 11.6428 27.9427 9.03649 27.9427 5.82141C27.9427 2.60633 25.3364 0 22.1213 0C18.9062 0 16.2999 2.60633 16.2999 5.82141C16.2999 9.03649 18.9062 11.6428 22.1213 11.6428Z" fill="#CCE0FF"/>
<path d="M5.82141 11.6428C9.03649 11.6428 11.6428 9.03649 11.6428 5.82141C11.6428 2.60633 9.03649 0 5.82141 0C2.60633 0 0 2.60633 0 5.82141C0 9.03649 2.60633 11.6428 5.82141 11.6428Z" fill="#335C98"/>
<path d="M5.82141 44.2427C9.03649 44.2427 11.6428 41.6363 11.6428 38.4213C11.6428 35.2062 9.03649 32.5999 5.82141 32.5999C2.60633 32.5999 0 35.2062 0 38.4213C0 41.6363 2.60633 44.2427 5.82141 44.2427Z" fill="#CCE0FF"/>
<path d="M22.1213 44.2427C25.3364 44.2427 27.9427 41.6363 27.9427 38.4213C27.9427 35.2062 25.3364 32.5999 22.1213 32.5999C18.9062 32.5999 16.2999 35.2062 16.2999 38.4213C16.2999 41.6363 18.9062 44.2427 22.1213 44.2427Z" fill="#CCE0FF"/>
<path d="M38.4214 27.9427C41.6364 27.9427 44.2428 25.3364 44.2428 22.1213C44.2428 18.9063 41.6364 16.2999 38.4214 16.2999C35.2063 16.2999 32.5999 18.9063 32.5999 22.1213C32.5999 25.3364 35.2063 27.9427 38.4214 27.9427Z" fill="#387EE8"/>
<path d="M38.4214 11.6428C41.6364 11.6428 44.2428 9.03649 44.2428 5.82141C44.2428 2.60633 41.6364 0 38.4214 0C35.2063 0 32.5999 2.60633 32.5999 5.82141C32.5999 9.03649 35.2063 11.6428 38.4214 11.6428Z" fill="#CCE0FF"/>
<path d="M41.2835 33.3761H35.5591C36.0806 33.0434 36.5096 32.5843 36.8064 32.0416C37.1032 31.4989 37.2582 30.89 37.257 30.2714C37.2582 29.6528 37.1032 29.0439 36.8064 28.5012C36.5096 27.9585 36.0806 27.4994 35.5591 27.1666H41.2835C40.7629 27.5003 40.3346 27.9596 40.038 28.5021C39.7413 29.0446 39.5858 29.653 39.5858 30.2714C39.5858 30.8897 39.7413 31.4981 40.038 32.0407C40.3346 32.5832 40.7629 33.0424 41.2835 33.3761Z" fill="url(#paint0_linear)"/>
<path d="M23.233 32.8099L16.5096 39.5333C16.431 36.4405 15.158 33.4984 12.9577 31.3236C10.7574 29.1488 8.1428 27.9347 5.04937 27.8923L4.64079 27.8016L11.5014 20.941L11.5677 21.0073C11.6102 24.1007 12.8486 27.0576 15.0234 29.2579C17.1982 31.4582 20.1403 32.7312 23.233 32.8099Z" fill="url(#paint1_linear)"/>
<path d="M21.0258 11.4169L27.7491 4.69354C27.8206 7.7636 29.0755 10.6873 31.2518 12.854C33.4517 15.0655 36.074 16.3158 39.1932 16.3505L39.618 16.4252L32.7574 23.2858L32.6911 23.2195C32.6486 20.1261 31.4102 17.1692 29.2354 14.9689C27.0607 12.7685 24.1185 11.4956 21.0258 11.4169Z" fill="url(#paint2_linear)"/>
<path d="M8.63493 17.0761H2.91074C3.43152 16.7426 3.86005 16.2834 4.15686 15.7408C4.45367 15.1983 4.60924 14.5898 4.60924 13.9713C4.60924 13.3529 4.45367 12.7444 4.15686 12.2018C3.86005 11.6593 3.43152 11.2001 2.91074 10.8666H8.63512C8.11455 11.2003 7.68624 11.6595 7.38958 12.202C7.09293 12.7446 6.93745 13.353 6.93745 13.9713C6.93745 14.5897 7.09293 15.1981 7.38958 15.7406C7.68624 16.2832 8.11455 16.7424 8.63512 17.0761H8.63493Z" fill="url(#paint3_linear)"/>
<path d="M41.2835 33.3761H35.5591C36.0806 33.0434 36.5096 32.5843 36.8064 32.0416C37.1032 31.4989 37.2582 30.89 37.257 30.2714C37.2582 29.6528 37.1032 29.0439 36.8064 28.5012C36.5096 27.9585 36.0806 27.4994 35.5591 27.1666H41.2835C40.7629 27.5003 40.3346 27.9596 40.038 28.5021C39.7413 29.0446 39.5858 29.653 39.5858 30.2714C39.5858 30.8897 39.7413 31.4981 40.038 32.0407C40.3346 32.5832 40.7629 33.0424 41.2835 33.3761Z" fill="url(#paint4_linear)"/>
<path d="M21.861 15.1215L15.1376 21.8449C15.2457 18.9492 14.2423 16.2912 12.3132 14.3622C10.3511 12.4 7.6473 11.3991 4.69958 11.5436L4.64113 11.4851L11.5017 4.62451L11.5657 4.9291C11.4216 7.87696 12.4171 10.3349 14.3789 12.2967C16.3083 14.2261 18.9656 15.2292 21.8611 15.1211L21.861 15.1215Z" fill="url(#paint5_linear)"/>
<path d="M22.3678 29.0752L29.0912 22.3518C28.9832 25.2471 29.9868 27.9052 31.9157 29.8341C33.8778 31.7962 36.5816 32.7972 39.5293 32.6527L39.5879 32.7113L32.7273 39.5719L32.6048 38.7122C32.7491 35.7642 31.812 33.8616 29.8501 31.8997C27.9212 29.9708 25.2635 28.9673 22.3678 29.0752Z" fill="url(#paint6_linear)"/>
</g>
<path d="M176.075 22.4345C177.725 21.4706 178.754 19.9021 178.754 17.5167C178.754 13.0727 175.454 10.6219 171.239 10.6219H160.815V35.1293H172.513C176.663 35.1293 179.931 32.8093 179.931 28.3653C179.931 25.1793 178.395 23.3331 176.075 22.4345ZM172.742 18.0722C172.742 19.1505 172.154 20.2288 170.291 20.2288H166.893V15.9155H170.291C172.154 15.9155 172.742 16.9939 172.742 18.0722ZM166.893 29.8357V25.1303H171.271C173.33 25.1303 173.853 26.3067 173.853 27.483C173.853 28.6594 173.33 29.8357 171.271 29.8357H166.893Z" fill="#387EE8"/>
<path d="M188.615 35.1293V10.6219H182.733V35.1293H188.615Z" fill="#387EE8"/>
<path d="M199.925 35.4561C205.219 35.4561 208.029 32.842 208.029 28.7574V18.7911H202.147V28.0059C202.147 29.6397 201.167 30.3259 199.925 30.3259C198.683 30.3259 197.736 29.6397 197.736 28.0059V18.7911H191.854V28.7574C191.854 32.842 194.632 35.4561 199.925 35.4561Z" fill="#387EE8"/>
<path d="M82.0096 30.0164L66.8846 10H64.2427V34.6711H67.0497V14.6382L82.1417 34.6711H84.7837V10H82.0096V30.0164Z" fill="#3C4D66"/>
<path d="M106.126 26.3158C106.026 21.5789 102.262 17.8947 97.5392 17.8947C92.7838 17.8947 88.953 21.7105 88.953 26.4474C88.953 31.1842 92.7838 35 97.5392 35C100.809 35 103.616 33.2237 105.036 30.4934L102.526 29.5066C101.469 31.2171 99.6198 32.3026 97.5392 32.3026C94.4185 32.3026 91.8591 29.9342 91.6775 26.875H106.092L106.126 26.3158ZM97.5392 20.5921C100.066 20.5921 102.212 22.1875 103.005 24.4079H92.0407C92.8663 22.1546 94.9964 20.5921 97.5392 20.5921Z" fill="#3C4D66"/>
<path d="M116.042 35C119.774 35 122.251 32.5987 122.251 28.75V18.2237H119.543V28.4539C119.543 30.8553 118.123 32.3026 116.042 32.3026C113.995 32.3026 112.508 30.8553 112.508 28.4539V18.2237H109.8V28.75C109.8 32.5987 112.277 35 116.042 35Z" fill="#3C4D66"/>
<path d="M133.64 17.8947C131.642 17.8947 130.205 19.0296 129.347 20.8224V18.2237H126.639V34.6711H129.347V25.8882C129.347 22.8618 131.229 20.5921 133.706 20.5921C134.201 20.5921 134.763 20.7237 135.258 20.9868V18.2237C134.796 18.0263 134.234 17.8947 133.64 17.8947Z" fill="#3C4D66"/>
<path d="M145.656 35C150.412 35 154.243 31.1842 154.243 26.4474C154.243 21.7105 150.412 17.8947 145.656 17.8947C140.901 17.8947 137.07 21.7105 137.07 26.4474C137.07 31.1842 140.901 35 145.656 35ZM145.656 32.3026C142.387 32.3026 139.778 29.7039 139.778 26.4474C139.778 23.1908 142.387 20.5921 145.656 20.5921C148.893 20.5921 151.535 23.1908 151.535 26.4474C151.535 29.7039 148.893 32.3026 145.656 32.3026Z" fill="#3C4D66"/>
<path d="M182.912 53.5384C182.885 54.3062 182.566 55.0333 182.022 55.5667C181.478 56.1 180.751 56.3981 179.995 56.3981C179.239 56.3981 178.513 56.1 177.969 55.5667C177.425 55.0333 177.105 54.3062 177.078 53.5384V47.6046H175.622V53.5384C175.656 54.6944 176.131 55.7917 176.948 56.5973C177.764 57.403 178.857 57.8536 179.995 57.8536C181.133 57.8536 182.226 57.403 183.043 56.5973C183.859 55.7917 184.335 54.6944 184.368 53.5384V47.6046H182.912V53.5384Z" fill="black" fill-opacity="0.4"/>
<path d="M153.742 43.1958H152.275V57.9838H153.742V43.1958Z" fill="black" fill-opacity="0.4"/>
<path d="M131.823 47.6034C130.75 47.6021 129.715 48.0034 128.915 48.7305V43.1841H127.448V57.9798H128.915V51.8175C128.97 51.0505 129.316 50.335 129.88 49.8223C130.444 49.3096 131.182 49.0399 131.938 49.07C132.694 49.1002 133.409 49.428 133.931 49.984C134.454 50.5401 134.743 51.2809 134.738 52.0499V57.9798H136.194V52.0499C136.193 50.8716 135.732 49.7418 134.913 48.9083C134.094 48.0747 132.982 47.6055 131.823 47.6034Z" fill="black" fill-opacity="0.4"/>
<path d="M192.084 52.0607L191.737 51.9988C190.594 51.7973 189.135 51.5456 189.104 50.4843C189.097 50.332 189.121 50.1798 189.176 50.0377C189.23 49.8955 189.314 49.7666 189.42 49.6593C189.855 49.21 190.716 48.9428 191.726 48.9428H191.798C192.844 48.8658 193.878 49.2109 194.676 49.9033L194.836 50.0428L195.727 49.0977L195.563 48.9428C194.527 48.0203 193.182 47.5377 191.806 47.5949H191.734C190.343 47.5949 189.142 47.9822 188.445 48.7104C188.211 48.945 188.028 49.226 187.906 49.5359C187.784 49.8457 187.726 50.1778 187.736 50.5114C187.759 52.6727 189.939 53.0329 191.692 53.3234C193.445 53.6139 194.687 53.8889 194.656 55.0005C194.599 56.4568 192.682 56.6156 191.863 56.6156C190.43 56.6156 189.173 56.0385 188.498 55.0664L188.353 54.8611L187.313 55.779L187.435 55.9649C188.269 57.2392 189.923 57.9945 191.855 57.9945C192.823 57.9945 195.983 57.7854 196.047 55.0935C196.143 52.7347 193.795 52.3435 192.084 52.0607Z" fill="black" fill-opacity="0.4"/>
<path d="M161.016 47.6046C159.856 47.6056 158.744 48.0744 157.924 48.9081C157.104 49.7417 156.642 50.8721 156.641 52.0511V57.981H158.09V52.0511C158.117 51.2833 158.436 50.5562 158.98 50.0228C159.524 49.4894 160.251 49.1914 161.007 49.1914C161.763 49.1914 162.489 49.4894 163.033 50.0228C163.577 50.5562 163.897 51.2833 163.924 52.0511V57.981H165.38V52.0511C165.379 50.8741 164.919 49.7455 164.101 48.9122C163.284 48.0789 162.174 47.6087 161.016 47.6046Z" fill="black" fill-opacity="0.4"/>
<path d="M168.327 47.6046C167.378 47.6038 166.455 47.9179 165.698 48.4993C165.996 48.9021 166.242 49.3421 166.429 49.8085C166.958 49.3416 167.635 49.0856 168.335 49.0881C169.108 49.0881 169.85 49.4001 170.398 49.9557C170.945 50.5112 171.253 51.2649 171.254 52.0511V57.981H172.71V52.0511C172.709 51.4667 172.595 50.888 172.375 50.3483C172.154 49.8086 171.831 49.3182 171.424 48.9054C171.017 48.4925 170.535 48.1651 170.003 47.9419C169.472 47.7187 168.902 47.6041 168.327 47.6046Z" fill="black" fill-opacity="0.4"/>
<path d="M144.241 49.0881C144.963 49.0881 145.668 49.3055 146.267 49.7127C146.867 50.12 147.335 50.6989 147.611 51.3763C147.887 52.0536 147.959 52.7989 147.818 53.5179C147.677 54.2369 147.33 54.8974 146.82 55.4158C146.31 55.9341 145.66 56.2872 144.953 56.4302C144.245 56.5732 143.512 56.4998 142.846 56.2193C142.179 55.9387 141.61 55.4636 141.209 54.8541C140.808 54.2445 140.594 53.5278 140.594 52.7947C140.595 51.812 140.98 50.8698 141.664 50.1749C142.347 49.4799 143.274 49.0891 144.241 49.0881ZM144.241 47.6046C143.231 47.6046 142.244 47.909 141.404 48.4793C140.564 49.0496 139.91 49.8602 139.523 50.8086C139.137 51.7569 139.036 52.8005 139.233 53.8073C139.43 54.8141 139.916 55.7389 140.63 56.4647C141.345 57.1906 142.254 57.6849 143.245 57.8851C144.236 58.0854 145.262 57.9826 146.195 57.5898C147.128 57.197 147.926 56.5317 148.487 55.6782C149.048 54.8247 149.348 53.8212 149.348 52.7947C149.348 51.4182 148.81 50.0981 147.852 49.1248C146.894 48.1514 145.596 47.6046 144.241 47.6046Z" fill="black" fill-opacity="0.4"/>
<path d="M200.413 52.05V43.1958H198.939V57.9799H200.413V53.5412H201.884L206.275 57.9799H208.241L202.346 52.05H200.413Z" fill="black" fill-opacity="0.4"/>
<path d="M208.242 47.5963H206.223L203.201 50.4398L204.165 51.3347L208.242 47.5963Z" fill="black" fill-opacity="0.4"/>
<path d="M105.457 47.9349C103.838 47.9349 102.523 48.6649 101.684 49.7896L101.684 43.1841H100.446L100.446 57.9976H101.684V56.3402C102.523 57.4649 103.838 58.1949 105.457 58.1949C108.068 58.1949 110.278 55.9062 110.278 53.0649C110.278 50.2237 108.068 47.9349 105.457 47.9349ZM105.324 56.9124C103.266 56.9124 101.608 55.1958 101.608 53.0649C101.608 50.934 103.266 49.2174 105.324 49.2174C107.363 49.2174 109.039 50.934 109.039 53.0649C109.039 55.1958 107.363 56.9124 105.324 56.9124Z" fill="black" fill-opacity="0.4"/>
<path d="M119.234 48.1322L116.147 56.4981L112.965 48.1322H111.593L115.461 58.0766L113.575 62.9303H114.909L116.586 58.5896L120.644 48.1322H119.234Z" fill="black" fill-opacity="0.4"/>
<defs>
<linearGradient id="paint0_linear" x1="38.4213" y1="33.3761" x2="38.4213" y2="27.1666" gradientUnits="userSpaceOnUse">
<stop stop-color="#335C98"/>
<stop offset="1" stop-color="#387EE8"/>
</linearGradient>
<linearGradient id="paint1_linear" x1="8.07109" y1="24.3713" x2="19.8713" y2="36.1716" gradientUnits="userSpaceOnUse">
<stop stop-color="#387EE8"/>
<stop offset="1" stop-color="#CCE0FF"/>
</linearGradient>
<linearGradient id="paint2_linear" x1="36.1877" y1="19.8555" x2="24.3874" y2="8.05525" gradientUnits="userSpaceOnUse">
<stop stop-color="#387EE8"/>
<stop offset="1" stop-color="#CCE0FF"/>
</linearGradient>
<linearGradient id="paint3_linear" x1="5.82144" y1="10.8666" x2="6.32378" y2="17.0352" gradientUnits="userSpaceOnUse">
<stop stop-color="#335C98"/>
<stop offset="1" stop-color="#387EE8"/>
</linearGradient>
<linearGradient id="paint4_linear" x1="38.4213" y1="33.3761" x2="38.4213" y2="27.1666" gradientUnits="userSpaceOnUse">
<stop stop-color="#335C98"/>
<stop offset="1" stop-color="#387EE8"/>
</linearGradient>
<linearGradient id="paint5_linear" x1="9.89631" y1="9.7023" x2="19.2663" y2="14.7835" gradientUnits="userSpaceOnUse">
<stop stop-color="#335C98"/>
<stop offset="1" stop-color="#387EE8"/>
</linearGradient>
<linearGradient id="paint6_linear" x1="35.3166" y1="33.7642" x2="27.2388" y2="31.2306" gradientUnits="userSpaceOnUse">
<stop stop-color="#335C98"/>
<stop offset="1" stop-color="#387EE8"/>
</linearGradient>
<clipPath id="clip0">
<rect width="44.2427" height="44.2427" fill="white"/>
</clipPath>
</defs>
</svg>
