<svg width="245" height="140" viewBox="0 0 245 140" fill="none" xmlns="http://www.w3.org/2000/svg">
<g opacity="0.3" clip-path="url(#clip0)">
<path d="M244.857 17.4125V18.8074L242.357 20.9075L240.448 22.5114L238.269 22.4435L236.613 23.2793L237.064 24.9563V26.1422L233.223 27.8924L232.553 30.3373V34.9451L235.566 38.2939L235.189 39.694L232.024 40.8799V42.7607L229.749 43.8995L228.251 44.6466H225.768L221.854 48.3506L222.457 48.9096L223.138 53.0995L222.057 55.3982L220.576 58.5536L219.602 58.4126L219.377 56.8714L216.944 56.746L218.616 59.4574L220.576 61.6203L219.748 64.8384L218.391 66.8968H217.062L217.265 64.5563L216.116 62.8741L214.433 62.0539L214.258 59.9433L214.787 57.2893L213.965 56.7983L212.079 58.6163L212.76 59.9433L212.912 62.8793L214.117 63.4383L215.395 65.6743L215.671 66.8916L215.84 67.6282L215.311 69.2373L217.271 69.3783L218.78 69.9948L218.402 71.7501L219.681 72.5181L219.607 73.2129L218.324 74.3309L220.582 75.94V78.0349L219.951 78.3902L218.847 79.0119L219.9 80.7568L219.151 82.5069L213.199 83.4107V85.5735L211.471 88.6506L208.683 89.2149L208.255 89.8888L206.65 92.4226L206.729 93.8227L203.12 97.3804H201.599L200.394 99.8254L198.435 100.802L198.401 101.387L197.911 108.628L199.341 110.378L199.949 112.818L200.028 112.886L201.532 114.077V115.968L205.141 118.831L205.519 122.049L206.87 124.395L209.511 128.966V135.894H203.936C203.936 135.894 203.942 135.831 203.936 135.815C203.722 135.303 202.354 134.196 202.354 134.196L200.254 134.347V131.97H198.818L198.215 131.066V129.74L197.01 129.666L194.606 127.08L194.91 125.612L193.705 125.753L193.096 124.709L193.175 124.4L193.705 122.264L193.322 118.633L192.043 118.215L188.209 114.302L184.965 114.088L181.131 116.183L179.621 116.533L177.29 113.325L171.068 112.896L170.139 112.834L170.043 112.896L168.106 114.229L167.053 113.111L165.718 114.208L160.127 114.229V116.465L159.074 117.792L161.934 120.519L160.352 121.422L156.512 119.745L154.473 121.987L151.016 121.976L150.042 118.831L146.049 117.786V119.395L145.227 119.887L139.726 118.56H137.394L129.939 121.631V123.032L127.76 124.395L126.932 124.912L123.615 125.544L122.41 127.221L120.755 127.362L119.854 129.316L118.727 129.598L118.801 133.653C118.592 134.321 118.62 135.121 118.744 135.894C119.031 137.639 119.854 139.305 119.854 139.305L118.874 140L114.814 138.882C112.195 138.412 110.585 137.111 109.616 135.894C108.569 134.582 108.259 133.37 108.259 133.37C107.961 131.479 107.51 130.784 107.51 130.784C105.027 129.457 103.141 124.567 103.141 124.567C103.118 124.505 103.09 124.453 103.062 124.4C101.26 120.393 98.6978 118.424 98.6978 118.424H96.2145L95.4656 117.656L91.2479 117.515V120.242L88.6126 122.123C84.699 121.219 81.9285 116.705 81.9285 116.705L82.0637 114.234L80.8755 112.902L73.482 104.595L65.4972 104.036L64.8271 106.904L50.5918 105.295L43.6487 101.403L34.2562 96.1422V93.6973H22.7857L22.4141 89.9045L22.2564 88.2536L20.2968 87.5588V85.4638H18.4893L18.2133 83.954L16.6873 83.5779L13.8211 80.297L10.0596 79.8791L8.78134 78.9022L8.95591 78.4163L8.96154 78.4111L9.53027 76.8699L9.07979 76.1072L8.69688 75.1982L9.2262 73.9391L8.58989 72.4763L8.24639 71.6874L6.82174 68.4223L6.14039 67.858V67.0222L7.19339 65.9773V64.9325L5.45903 63.0413L5.61107 58.9193L4.02875 57.3102L4.18078 55.0743L2.41827 52.6032L2.59846 49.291L3.12778 47.1804L0.571289 44.5108L2.0072 42.6927L4.6369 38.7118L4.33845 36.758L5.08738 35.4989L5.39146 30.4732L8.2295 25.6982L10.2116 22.3651V20.5471L11.0169 19.4552L11.7151 18.52L13.2242 14.0533V12.7995L14.5813 11.3314L13.7536 9.93134L13.8493 7.65356L15.105 6.51989L13.9056 6.36316L13.9788 4.69139L13.2299 4.34137V3.2286L13.9788 1.34786H15.0318L15.7132 3.02485L18.1964 3.93388L20.8318 4.35182V6.03403L19.7056 7.50205L18.1964 7.98791L18.5005 10.2239H20.6797L22.1888 8.54691V6.58258L22.7914 5.88775L21.5863 4.41973L22.4535 3.01963L22.7914 2.25688L22.11 1.62475L22.7857 0L32.1164 2.6696L43.6431 5.5325L47.5905 6.34226L48.086 6.44152L54.0549 7.33488L67.7383 9.37757L68.1663 9.42981L72.9639 9.96268L97.3463 12.7002L99.5875 12.7942L101.243 12.8622L118.553 13.5674L121.228 13.4003L128.492 12.9457V11.1277L130.53 12.2405V14.5444L134.748 15.9445L135.953 14.6854L139.112 15.6624L140.018 17.0625L143.104 18.0394L145.514 17.3341L150.779 18.1021L152.063 16.2214L153.64 16.0803L155.746 13.9854L155.599 13.2174L156.202 12.1725L161.923 12.3815L162.976 13.0137L165.161 16.8535L167.34 16.9266L167.791 15.8086L169.677 16.8535L169.829 18.6768L171.034 19.4395L171.09 20.9128L171.107 21.4718L172.386 21.5397V23.0077L173.816 23.9846L174.424 25.2385L179.543 24.9616L187.251 24.8153L190.309 27.6155L192.714 30.9643L191.807 32.4114H188.462L186.773 30.6194L186.244 30.9016L186.457 32.4114L186.621 33.5503L185.038 36.2042L186.091 40.2582L183.681 42.0763L183.569 43.9152L183.462 45.6392L180.979 46.402V47.5931L183.766 47.7342L187.342 43.91L187.753 43.4712L191.441 43.6801L194.684 41.3083L196.937 41.3762L197.539 40.2582L197.016 39.2813L194.606 39.5634L194.228 37.9543L196.633 35.7915L200.698 33.7697L203.869 33.9055L203.413 32.5785L203.829 32.4166L208.452 30.6247L209.584 28.4618L212.749 25.8758L224.794 23.2846L225.543 21.4091L227.401 20.9232L227.418 20.918L227.874 20.0821L227.947 18.7551L229.006 18.4051L228.927 16.9371L228.026 15.187L229.27 9.42458H237.565L239.547 15.187L241.355 15.2601L241.568 17.0572L244.857 17.4125Z" fill="#173275"/>
<path d="M45.705 5.3656C45.705 5.3656 42.2419 13.3378 42.8838 14.1737C43.5258 15.0044 42.2419 19.1733 42.2419 19.1733L41.5999 20.96C41.5999 20.96 43.0133 22.8617 42.8838 23.6976C42.7543 24.5282 40.7046 26.3149 40.8341 26.7903C40.9636 27.2657 38.2664 28.8121 38.5254 29.4077C38.7844 30.0033 39.4207 30.2384 39.0378 31.1944C38.6549 32.1452 36.0872 42.2594 36.0872 42.2594" stroke="white" stroke-width="0.7688" stroke-miterlimit="10"/>
<path d="M12.3572 12.6277C12.3572 12.6277 15.4374 12.5075 15.9498 12.7479C16.4622 12.9882 16.4622 13.939 16.4622 13.939C16.4622 13.939 17.7461 13.4636 18.129 13.6987C18.5119 13.939 18.6414 15.3652 18.6414 15.3652C18.6414 15.3652 18.6414 16.316 18.2585 16.7914C17.8756 17.2668 18.6414 17.8624 19.1538 17.9826C19.6663 18.1027 20.6911 17.5072 21.2035 17.6273C21.716 17.7475 23.7713 18.6983 23.7713 18.6983L26.08 18.9386L28.1297 18.5834L29.2841 19.414L32.4881 19.1737C32.4881 19.1737 34.7969 19.1737 36.7227 19.7693C38.6485 20.3648 41.5991 20.9604 41.5991 20.9604" stroke="white" stroke-width="0.7688" stroke-miterlimit="10"/>
<path d="M49.2911 6.20172L47.8777 11.0812L48.6491 13.2231L48.0072 14.2941C48.0072 14.2941 48.6491 15.6054 49.674 16.0808C50.6988 16.5562 50.1864 19.5341 50.9579 19.7692C50.9579 19.7692 53.1371 19.4139 53.1371 19.7692C53.1371 20.1244 51.2113 22.9821 51.2113 22.9821C51.2113 22.9821 51.2113 23.9329 50.8283 24.4083C50.4454 24.8837 50.9579 25.0039 51.3408 25.239C51.7237 25.4793 53.52 24.7636 53.3905 25.4793C53.261 26.195 53.6495 27.5011 53.6495 27.5011L54.8039 29.643L54.2914 30.9543C54.2914 30.9543 55.1868 31.0745 55.1868 31.4297C55.1868 31.785 55.0573 32.1455 55.5697 32.5007C56.0821 32.856 57.2365 32.9761 57.2365 32.9761C57.2365 32.9761 59.1623 32.9761 59.6747 33.0963C60.1871 33.2164 61.212 33.0963 61.212 33.0963C61.212 33.0963 62.2368 32.0253 62.6254 32.3805C63.0083 32.7358 63.3968 33.6918 63.3968 33.6918" stroke="white" stroke-width="0.7688" stroke-miterlimit="10"/>
<path d="M4.53027 34.282C4.53027 34.282 44.933 45.7075 61.0941 46.7785" stroke="white" stroke-width="0.7688" stroke-miterlimit="10"/>
<path d="M94.9541 12.0319C94.9541 12.0319 91.1081 49.3959 90.8491 56.0621" stroke="white" stroke-width="0.7688" stroke-miterlimit="10"/>
<path d="M92.9038 33.8067C91.237 34.4023 79.181 32.8559 77.1256 32.8559C75.0759 32.8559 63.9152 31.1893 63.9152 31.1893C63.4028 34.7575 59.8102 52.2536 59.8102 52.2536C59.8102 52.2536 86.2648 56.4278 99.5484 56.595C99.5484 56.595 99.6385 76.0501 98.5517 78.2287C98.5517 78.2287 50.1079 74.7075 43.1479 71.855" stroke="white" stroke-width="0.7688" stroke-miterlimit="10"/>
<path d="M92.0029 45.3525C92.0029 45.3525 115.349 47.0191 124.455 46.0683" stroke="white" stroke-width="0.7688" stroke-miterlimit="10"/>
<path d="M120.608 13.4579C120.608 13.4579 121.503 15.2446 121.25 15.8402C120.991 16.4358 120.479 19.0531 121.509 19.8838C122.534 20.7145 122.663 22.2661 122.793 23.2169C122.923 24.1677 122.534 25.8342 122.793 26.55C123.052 27.2657 124.077 29.4076 124.077 30.1181C124.077 30.8339 122.663 32.7355 122.663 32.7355L123.947 33.4512C123.947 33.4512 124.719 42.019 124.589 43.2102C124.46 44.4013 123.818 46.4231 124.33 47.3739C124.843 48.3247 124.46 50.3465 124.972 51.0622C125.485 51.778 126.386 53.6796 126.639 54.3953C126.898 55.111 126.256 58.5591 127.41 59.5099C128.565 60.4607 129.207 62.0071 129.59 62.2474C129.973 62.4877 129.849 63.4385 131.127 63.3184C132.411 63.1982 132.664 63.3184 132.022 63.7938C131.38 64.2692 129.973 64.6244 130.355 64.9849C130.738 65.3402 130.738 65.1051 131.251 65.5805C131.763 66.0559 132.022 67.1269 132.022 67.1269C132.664 67.1269 133.306 67.7224 133.306 67.7224C133.306 67.7224 132.923 71.2906 133.177 71.8862C133.436 72.4817 133.177 78.1919 133.56 78.6673C133.942 79.1427 133.047 81.4048 133.689 82.3556C134.331 83.3064 134.072 86.3992 134.072 86.3992C134.967 87.7105 134.072 93.3005 134.714 95.3223C135.356 97.3441 134.584 97.2239 134.584 97.2239L136.634 97.4642C136.634 97.4642 136.375 104.01 137.406 105.557C138.43 107.103 138.56 107.343 138.689 108.054C138.819 108.77 139.585 109.245 139.844 109.841C140.103 110.436 140.356 111.982 139.844 112.578C139.331 113.174 138.43 114.245 138.819 114.84C139.207 115.436 139.714 116.742 139.202 117.222C138.689 117.698 138.819 119.124 138.819 119.124" stroke="white" stroke-width="0.7688" stroke-miterlimit="10"/>
<path d="M150.875 17.7422C150.875 17.7422 142.282 23.6926 141.64 24.4084C140.998 25.1241 141.64 27.1459 141.64 27.1459C141.64 27.1459 138.56 30.3588 138.819 31.1895C139.078 32.0201 139.331 32.5008 139.331 33.6867C139.331 34.8778 139.331 36.304 140.356 36.6593C141.381 37.0145 142.665 37.1347 143.69 38.0855C144.715 39.0363 144.585 39.5117 145.616 39.9871C146.64 40.4625 146.64 42.0089 146.64 42.4843C146.64 42.9597 147.536 44.271 147.536 44.271L147.277 45.6973L147.66 47.0086H148.944L150.61 48.3198C150.61 48.3198 151.382 48.9154 151.635 49.6311C151.894 50.3469 152.531 51.2977 151.765 51.8932C150.993 52.4888 152.66 52.7239 150.993 53.5598C149.326 54.3904 148.814 53.915 148.685 54.3904C148.555 54.8659 148.685 57.0078 148.685 57.0078L146.888 58.434C146.888 58.434 145.993 62.4776 147.271 63.3135C148.555 64.1442 150.993 64.8599 151.506 65.8107C152.018 66.7615 152.018 68.6684 152.79 69.3789C153.561 70.0946 153.685 71.5208 153.685 71.5208C153.685 71.5208 154.58 73.0672 155.864 73.1874C157.148 73.3075 157.401 74.3785 157.401 74.8539C157.401 75.3293 155.605 75.9249 157.018 76.6406C158.432 77.3563 158.944 77.8317 158.944 77.8317L159.074 78.9027L158.302 79.8535C158.302 79.8535 155.994 79.9737 156.377 80.5693C156.759 81.1648 157.272 81.5201 157.272 81.5201L157.401 83.4217C157.401 83.4217 157.401 83.662 157.272 84.2524C157.142 84.8479 155.988 85.3233 155.735 85.7987C155.476 86.2742 155.093 88.6564 154.58 89.1318C154.068 89.6072 154.321 89.8476 153.685 90.323C153.043 90.7984 151.506 92.8202 152.018 93.2956C152.531 93.771 151.123 94.4867 151.123 94.4867C151.123 94.4867 149.709 95.2024 150.74 96.869C151.77 98.5355 150.357 99.6065 150.999 100.082C151.641 100.557 151.641 101.273 151.641 101.273L152.666 102.94C152.666 102.94 151.365 103.666 151.641 104.011C151.641 104.011 149.462 108.174 149.974 109.606C150.486 111.032 151.128 111.152 151.128 111.152L158.184 109.961L158.956 111.983C158.956 111.983 158.697 113.529 159.468 113.884L160.752 114.48" stroke="white" stroke-width="0.7688" stroke-miterlimit="10"/>
<path d="M38.2657 82.1203C36.8523 80.9292 19.7959 56.2967 18.9005 55.8213C18.0052 55.3459 23.259 39.4014 23.259 39.4014" stroke="white" stroke-width="0.7688" stroke-miterlimit="10"/>
<path d="M48.2664 45.3525C48.2664 45.3525 42.3651 76.1705 41.7232 77.1266C41.0812 78.0826 40.6983 77.2467 40.6983 77.2467L39.0315 76.0556C38.3896 76.7713 38.4516 77.9833 38.5416 78.5685C38.6317 79.1536 38.902 80.4962 38.902 80.8306C38.902 81.1649 37.4549 82.7583 37.8152 83.0091C38.1756 83.2599 38.4459 84.101 38.6261 84.4353C38.8063 84.7697 39.2568 85.6108 39.5271 86.1123C39.7974 86.6138 39.5271 87.3714 38.8063 87.2042C38.0855 87.037 37.4492 87.5385 37.4492 87.5385C37.4492 87.5385 36.4525 89.7171 36.8186 90.2238C37.1789 90.7253 36.278 90.7253 36.278 91.3157C36.278 91.9008 35.4671 92.5747 36.0077 92.8255C36.5483 93.0763 37.8152 93.1598 37.0945 93.5778C36.3737 93.9957 35.8275 94.2465 35.2869 94.2465C34.7463 94.2465 34.2283 93.6927 34.2283 93.6927" stroke="white" stroke-width="0.7688" stroke-miterlimit="10"/>
<path d="M68.9101 53.5754C68.9101 53.5754 61.2293 104.893 61.9501 107.072" stroke="white" stroke-width="0.7688" stroke-miterlimit="10"/>
<path d="M94.0355 77.7271C94.3058 77.7271 93.7652 81.1647 93.7652 81.1647C93.2247 81.5826 92.3181 102.631 92.1379 104.977C92.1379 104.977 74.9632 103.969 74.3325 103.969C73.7019 103.969 73.4597 104.585 73.4597 104.585" stroke="white" stroke-width="0.7688" stroke-miterlimit="10"/>
<path d="M98.5571 78.2281C98.5571 78.2281 127.805 79.6126 133.565 78.667" stroke="white" stroke-width="0.7688" stroke-miterlimit="10"/>
<path d="M93.7649 81.1645C93.7649 81.1645 106.508 81.4988 107.415 81.5824L107.865 92.0623L109.042 92.987L110.94 92.6527L111.75 93.6609L113.918 94.5856H115.366L116.633 94.3349L118.08 95.2596V95.8447L120.248 95.5103L121.425 95.9283L122.331 95.8447L123.598 95.6775L124.775 95.9283L125.772 96.5134L127.309 96.0119H129.567L130.834 95.3432L131.735 95.6775C131.735 95.6775 133.757 97.1246 134.596 97.2396" stroke="white" stroke-width="0.7688" stroke-miterlimit="10"/>
<path d="M99.3684 62.2106C99.3684 62.2106 117.866 63.4539 129.585 62.2471" stroke="white" stroke-width="0.7688" stroke-miterlimit="10"/>
<path d="M127.118 59.1915C127.118 59.1915 128.656 59.3586 131.094 59.3586C133.532 59.3586 142.756 58.1832 143.657 58.1832C144.563 58.1832 145.464 58.4339 145.464 58.4339H146.9" stroke="white" stroke-width="0.7688" stroke-miterlimit="10"/>
<path d="M124.584 43.2101C124.584 43.2101 129.286 42.8444 131.004 43.2624C132.721 43.6803 139.861 43.0952 141.219 43.0116C142.576 42.928 146.647 42.4944 146.647 42.4944" stroke="white" stroke-width="0.7688" stroke-miterlimit="10"/>
<path d="M141.488 25.4842C141.488 25.4842 144.106 24.8991 144.653 24.8991C145.193 24.8991 145.013 24.058 145.739 24.1468C146.46 24.2304 146.916 24.8155 147.097 25.3223C147.277 25.8238 149.535 25.8238 149.535 25.8238C149.535 25.8238 150.982 25.9074 153.6 26.9993C156.219 28.0912 157.756 28.2583 157.756 28.2583L157.936 29.0942L159.474 30.0189L160.47 31.9467L161.287 33.3259L161.36 36.1783L161.287 42.0138L160.774 45.5454C160.774 45.5454 161.129 46.6007 161.281 47.1232C161.281 47.1232 161.191 47.5411 161.371 48.2986C161.551 49.0509 161.912 48.8002 163.269 49.3069C164.626 49.8084 164.626 50.3988 164.626 50.3988C164.626 50.3988 164.085 52.7445 163.815 54.0871C163.545 55.4298 164.902 63.4804 164.992 64.3998C165.082 65.3245 165.262 67.0851 165.262 67.0851C165.262 67.0851 164.266 69.4308 163.815 70.3555C163.365 71.2802 163.815 71.8653 164.085 72.1997C164.356 72.534 163.995 73.6259 163.995 73.6259C163.995 73.6259 162.818 73.8767 161.827 74.0438C160.831 74.211 162.008 75.0521 162.098 75.5536C162.188 76.0552 161.917 76.3059 161.917 76.3059L161.107 75.7208C161.107 75.7208 159.93 75.8044 159.299 75.888C158.668 75.9716 158.967 77.8419 158.967 77.8419" stroke="white" stroke-width="0.7688" stroke-miterlimit="10"/>
<path d="M149.62 47.7079C149.62 47.7079 152.058 47.7915 152.874 47.7915C153.685 47.7915 156.94 47.3735 156.94 47.3735L159.378 46.9556L161.062 46.8354" stroke="white" stroke-width="0.7688" stroke-miterlimit="10"/>
<path d="M133.172 81.499C133.172 81.499 137.694 80.4907 139.135 80.9139C140.582 81.3318 144.558 80.9975 144.558 80.9975L148.714 80.5795C148.714 80.5795 154.316 79.9108 154.677 80.2452C155.037 80.5795 154.587 82.0893 154.136 82.5909C153.686 83.0924 154.497 83.176 155.313 83.0924C156.124 83.0088 156.67 82.1677 157.121 82.3401" stroke="white" stroke-width="0.7688" stroke-miterlimit="10"/>
<path d="M181.626 47.1706C181.626 47.1706 178.906 48.8842 178.005 49.0513C177.104 49.2185 175.111 49.4693 175.111 49.4693L173.574 48.8006L170.139 49.6417L166.704 50.4776L164.626 50.394" stroke="white" stroke-width="0.7688" stroke-miterlimit="10"/>
<path d="M158.314 79.8587C158.314 79.8587 164.261 79.9057 164.261 79.4878C164.261 79.0698 164.261 78.5631 164.261 78.5631L167.966 78.2287C167.966 78.2287 175.647 76.8861 179.262 76.6353C182.877 76.3846 185.771 75.627 189.206 75.0419C192.641 74.4568 198.965 74.2896 201.138 73.6993C203.306 73.1142 209.089 72.1895 211.263 71.1812C213.431 70.1729 215.937 68.6788 215.937 68.6788" stroke="white" stroke-width="0.7688" stroke-miterlimit="10"/>
<path d="M136.787 100.447C136.787 100.447 141.399 100.196 142.84 100.28C144.287 100.364 150.977 99.6948 150.977 99.6948" stroke="white" stroke-width="0.7688" stroke-miterlimit="10"/>
<path d="M154.862 88.6249C154.862 88.6249 157.03 88.3741 158.026 88.1233C159.023 87.8726 155.132 88.2905 168.241 87.1986C181.345 86.1068 187.313 84.5969 187.313 84.5969L188.851 84.3462C188.851 84.3462 191.019 82.92 192.105 82.7528C193.192 82.5856 196.807 82.0005 196.807 82.0005C196.807 82.0005 197.168 81.7497 198.164 81.9169C199.161 82.0841 199.972 82.2513 199.972 82.2513L200.062 83.3431L201.599 83.5103L206.025 82.3348L209.911 84.7641L213.199 85.5791" stroke="white" stroke-width="0.7688" stroke-miterlimit="10"/>
<path d="M169.993 113.21L170.68 112.103V110.76C170.68 110.76 171.04 109.835 170.32 109.668C169.599 109.501 169.689 108.66 169.689 108.66L171.316 108.409L173.394 108.326L176.829 108.075L180.714 107.49C180.714 107.49 182.432 107.155 183.243 107.322C184.054 107.49 184.24 108.247 184.24 108.247L185.597 108.414C185.597 108.414 186.864 107.996 189.212 107.996C191.56 107.996 193.548 107.746 194.905 107.746C196.262 107.746 196.352 107.495 196.802 107.662C197.253 107.829 197.979 108.837 198.249 108.837" stroke="white" stroke-width="0.7688" stroke-miterlimit="10"/>
<path d="M163.81 87.5387C163.81 87.5387 165.257 89.2993 165.347 89.6336C165.437 89.968 165.347 94.4138 165.347 94.4138C165.347 94.4138 164.441 100.871 164.627 101.122C164.807 101.373 164.356 103.974 164.717 104.392C165.077 104.81 165.347 106.236 165.347 106.236C165.347 106.236 166.344 111.936 166.434 112.61C166.524 113.279 167.211 113.958 167.211 113.958" stroke="white" stroke-width="0.7688" stroke-miterlimit="10"/>
<path d="M177.28 86.4466V87.5385C177.28 87.5385 177.189 87.1205 178.547 90.6417C179.904 94.1628 181.351 99.5282 181.801 99.8677C182.252 100.202 182.342 101.043 182.072 101.461C181.801 101.879 181.711 102.13 181.621 102.553C181.531 102.971 181.531 103.645 181.531 103.645L182.708 105.071L181.987 106.33V106.915" stroke="white" stroke-width="0.7688" stroke-miterlimit="10"/>
<path d="M188.485 84.2681L187.764 85.8615L189.031 86.4466C190.028 86.8646 190.028 86.8646 190.028 86.8646L191.925 88.1236L193.463 89.8842C193.463 89.8842 193.553 91.1433 195.09 91.8956C196.627 92.6479 198.164 93.489 198.164 93.489C198.164 93.489 198.435 93.7397 198.615 94.2413C198.795 94.7428 199.246 95.5839 199.246 95.5839C199.246 95.5839 199.966 96.3362 200.332 96.8429C200.693 97.3445 201.825 97.7363 201.825 97.7363" stroke="white" stroke-width="0.7688" stroke-miterlimit="10"/>
<path d="M182.701 85.438C182.701 85.438 182.611 84.6857 182.701 84.0953C182.792 83.5102 183.422 83.4266 183.878 83.4266C184.329 83.4266 183.968 82.5019 184.509 82.2512C185.05 82.0004 186.046 81.4101 186.497 81.4101C186.947 81.4101 187.218 80.569 187.218 80.569L189.115 79.3099L189.656 78.5576C190.923 78.3069 191.824 78.0561 191.824 78.0561C191.824 78.0561 195.979 75.794 197.066 74.2842" stroke="white" stroke-width="0.7688" stroke-miterlimit="10"/>
<path d="M175.184 49.5417C175.184 49.5417 176.823 62.4614 177.273 63.5532" stroke="white" stroke-width="0.7688" stroke-miterlimit="10"/>
<path d="M196.346 40.8283L196.526 43.7643C196.526 43.7643 212.974 39.8252 214.421 39.658C215.869 39.4908 215.869 40.076 215.869 40.076L216.499 40.7447C216.499 40.7447 216.409 41.079 216.95 41.3298C217.49 41.5806 218.757 42.2545 218.757 42.2545L221.286 42.6724C221.286 42.6724 222.553 44.0151 223.183 43.6807C223.814 43.3464 223.003 43.0956 223.003 42.6724C223.003 42.2545 223.273 41.6641 223.273 41.6641C223.273 41.6641 223.003 37.4691 222.643 36.9675C222.282 36.466 221.832 34.2823 221.832 34.2823L221.381 31.853L220.385 28.8333C220.385 28.8333 219.934 26.822 219.118 26.0645C218.307 25.3122 217.851 23.9695 217.851 23.9695" stroke="white" stroke-width="0.7688" stroke-miterlimit="10"/>
<path d="M163.81 71.2697C163.81 71.2697 166.428 71.8549 166.795 71.8549C167.155 71.8549 168.061 71.6041 168.061 71.6041L168.512 70.8518C168.512 70.8518 168.512 70.5175 170.68 69.5928C172.848 68.6681 175.382 67.1635 175.382 67.1635L176.379 66.0716C176.559 65.4865 177.555 65.4865 177.375 65.1469C177.195 64.8125 176.198 63.7207 176.835 63.6371C177.465 63.5535 178.282 63.2191 178.372 63.4699C178.462 63.7207 179.183 63.6371 179.909 64.055C180.63 64.473 180.996 65.1469 180.996 65.1469H183.344C184.341 64.8961 185.242 64.8961 185.242 64.8961C185.242 64.8961 184.881 64.2274 185.422 64.2274C185.963 64.2274 186.419 63.4751 186.779 63.8931C187.139 64.311 186.959 64.9014 186.959 64.9014L187.77 65.7372C187.77 65.7372 187.77 67.5814 188.401 67.9158C189.031 68.2501 190.749 69.4256 191.205 69.7599C191.656 70.0943 192.292 71.1026 192.923 71.1026C193.553 71.1026 194.55 71.019 194.55 71.019L194.82 70.5174C195.631 70.6846 196.718 70.0995 196.718 70.0995L198.616 69.1748L199.522 68.6733V66.7455C199.522 66.7455 199.072 65.8208 199.522 65.6537C199.973 65.4865 201.166 62.9841 201.093 62.5139C201.02 62.0385 201.313 61.2235 201.606 60.9518C201.898 60.6801 201.02 61.0197 202.411 60.4085C203.802 59.7972 203.729 60.2047 204.095 59.8652C204.461 59.5256 205.266 58.371 205.412 57.8277C205.559 57.2844 205.925 57.2164 205.632 56.741C205.339 56.2656 204.9 55.9261 205.851 56.4694C206.803 57.0127 207.169 57.2164 207.682 57.3523C208.194 57.4881 208.78 57.6919 208.78 57.3523C208.78 57.0127 208.34 56.1977 208.78 56.1977C209.219 56.1977 210.317 57.1485 211.122 57.4202C211.927 57.6919 211.719 58.5591 212.659 58.7106" stroke="white" stroke-width="0.7688" stroke-miterlimit="10"/>
<path d="M191.435 43.6752C191.435 43.6752 192.674 45.2686 192.888 45.4044C193.108 45.5402 193.401 46.6269 193.401 46.6269C193.401 46.6269 193.254 48.7323 193.84 49.4114C194.425 50.0906 194.572 51.4489 194.572 51.4489C194.572 51.4489 194.059 55.1842 194.206 55.5238C194.352 55.8634 193.913 56.4746 194.206 57.018C194.499 57.5613 193.693 57.9688 193.401 58.3763C193.108 58.7838 193.035 59.3271 192.522 59.3271C192.522 59.3271 190.838 60.0062 190.765 60.5496C190.692 61.0929 190.619 61.5004 190.619 62.0437C190.619 62.587 190.472 62.6549 190.472 62.6549L189.74 62.2475L189.521 62.7908L189.448 63.5379C189.448 63.5379 190.326 62.8587 189.448 64.0133C188.569 65.1678 188.423 65.5753 188.423 65.5753L187.758 65.7477" stroke="white" stroke-width="0.7688" stroke-miterlimit="10"/>
<path d="M201.448 60.6749C201.448 60.6749 201.009 59.9279 201.009 59.3846C201.009 58.8412 200.423 57.4829 200.423 57.4829L200.057 56.2604C200.057 56.2604 199.398 56.5321 198.959 56.7359C198.52 56.9396 198.227 57.415 197.714 57.3471C197.202 57.2792 196.25 57.0075 196.25 57.0075L195.811 56.5321C195.811 56.5321 194.933 56.3284 195.152 55.853C195.372 55.3775 194.64 55.038 194.64 55.038C193.981 55.1738 194.201 55.2417 194.201 55.2417" stroke="white" stroke-width="0.7688" stroke-miterlimit="10"/>
<path d="M217.327 56.9443C217.327 56.9443 216.595 55.3144 216.669 54.7031C216.742 54.0919 216.376 53.3448 216.376 53.3448L215.571 52.3261L213.887 52.1902L210.812 52.9373L207.811 53.4127L205.761 55.0427C205.761 55.0427 204.883 55.7898 205.249 56.3331" stroke="white" stroke-width="0.7688" stroke-miterlimit="10"/>
<path d="M217.986 41.6016C217.986 41.6016 216.302 42.7561 216.595 43.2315C216.888 43.7069 217.181 44.2503 217.181 44.2503L217.108 44.9973L217.4 45.6765L217.474 46.4915L217.693 47.4423L219.084 48.0535L217.474 52.6666L218.572 53.8211L216.815 53.4816" stroke="white" stroke-width="0.7688" stroke-miterlimit="10"/>
</g>
<defs>
<clipPath id="clip0">
<rect width="244.286" height="140" fill="white" transform="translate(0.571289)"/>
</clipPath>
</defs>
</svg>
