<svg width="652" height="213" viewBox="0 0 652 213" fill="none" xmlns="http://www.w3.org/2000/svg">
<g clip-path="url(#clip0)">
<path d="M150.677 166.519C159.426 166.519 166.519 159.426 166.519 150.677C166.519 141.928 159.426 134.836 150.677 134.836C141.928 134.836 134.836 141.928 134.836 150.677C134.836 159.426 141.928 166.519 150.677 166.519Z" fill="#335C98"/>
<path d="M106.322 125.33C116.821 125.33 125.332 116.819 125.332 106.32C125.332 95.8214 116.821 87.3105 106.322 87.3105C95.8234 87.3105 87.3125 95.8214 87.3125 106.32C87.3125 116.819 95.8234 125.33 106.322 125.33Z" fill="#387EE8"/>
<path d="M61.9663 122.165C70.7152 122.165 77.8076 115.073 77.8076 106.324C77.8076 97.5748 70.7152 90.4824 61.9663 90.4824C53.2174 90.4824 46.125 97.5748 46.125 106.324C46.125 115.073 53.2174 122.165 61.9663 122.165Z" fill="#387EE8"/>
<path d="M106.322 77.8076C115.071 77.8076 122.163 70.7152 122.163 61.9663C122.163 53.2174 115.071 46.125 106.322 46.125C97.5729 46.125 90.4805 53.2174 90.4805 61.9663C90.4805 70.7152 97.5729 77.8076 106.322 77.8076Z" fill="#A7C7F8"/>
<path d="M61.9673 77.8105C70.7162 77.8105 77.8086 70.7181 77.8086 61.9692C77.8086 53.2203 70.7162 46.1279 61.9673 46.1279C53.2184 46.1279 46.126 53.2203 46.126 61.9692C46.126 70.7181 53.2184 77.8105 61.9673 77.8105Z" fill="#335C98"/>
<path d="M61.9663 166.519C70.7152 166.519 77.8076 159.426 77.8076 150.677C77.8076 141.928 70.7152 134.836 61.9663 134.836C53.2174 134.836 46.125 141.928 46.125 150.677C46.125 159.426 53.2174 166.519 61.9663 166.519Z" fill="#A7C7F8"/>
<path d="M106.322 166.519C115.071 166.519 122.163 159.426 122.163 150.677C122.163 141.928 115.071 134.836 106.322 134.836C97.5729 134.836 90.4805 141.928 90.4805 150.677C90.4805 159.426 97.5729 166.519 106.322 166.519Z" fill="#A7C7F8"/>
<path d="M150.677 122.165C159.426 122.165 166.519 115.073 166.519 106.324C166.519 97.5748 159.426 90.4824 150.677 90.4824C141.928 90.4824 134.836 97.5748 134.836 106.324C134.836 115.073 141.928 122.165 150.677 122.165Z" fill="#387EE8"/>
<path d="M150.677 77.8076C159.426 77.8076 166.519 70.7152 166.519 61.9663C166.519 53.2174 159.426 46.125 150.677 46.125C141.928 46.125 134.836 53.2174 134.836 61.9663C134.836 70.7152 141.928 77.8076 150.677 77.8076Z" fill="#A7C7F8"/>
<path d="M158.466 136.949H142.889C144.308 136.044 145.475 134.794 146.283 133.318C147.09 131.841 147.512 130.184 147.509 128.5C147.512 126.817 147.09 125.16 146.283 123.683C145.475 122.206 144.308 120.957 142.889 120.052H158.466C157.049 120.96 155.884 122.209 155.077 123.686C154.269 125.162 153.846 126.818 153.846 128.5C153.846 130.183 154.269 131.839 155.077 133.315C155.884 134.791 157.049 136.041 158.466 136.949V136.949Z" fill="url(#paint0_linear)"/>
<path d="M107.827 135.015L90.7712 151.971C90.2696 143.443 87.3736 137.282 81.386 131.364C75.3984 125.446 69.5924 122.249 61.1745 122.133L58.7539 121.78L77.4231 103.111L77.6784 104.315C78.2302 112.843 81.0892 119.755 87.0072 125.743C92.9252 131.731 99.411 134.801 107.827 135.015Z" fill="url(#paint1_linear)"/>
<path d="M104.816 77.7287L122.073 61.1746C122.267 69.5289 125.245 75.2074 131.167 81.1032C137.154 87.1213 144.29 90.5237 152.778 90.6181L153.934 90.8213L135.264 109.49L135.084 109.31C134.969 100.892 131.598 92.846 125.68 86.8583C119.762 80.8707 113.232 77.9427 104.816 77.7287Z" fill="url(#paint2_linear)"/>
<path d="M69.6226 92.5927H54.0459C55.4631 91.6851 56.6292 90.4356 57.4369 88.9592C58.2446 87.4828 58.6679 85.8269 58.6679 84.144C58.6679 82.4611 58.2446 80.8052 57.4369 79.3288C56.6292 77.8524 55.4631 76.6029 54.0459 75.6953H69.6232C68.2066 76.6034 67.0411 77.853 66.2338 79.3294C65.4265 80.8057 65.0034 82.4614 65.0034 84.144C65.0034 85.8266 65.4265 87.4823 66.2338 88.9586C67.0411 90.435 68.2066 91.6846 69.6232 92.5927H69.6226Z" fill="url(#paint3_linear)"/>
<path d="M158.466 136.949H142.889C144.308 136.044 145.475 134.794 146.283 133.318C147.09 131.841 147.512 130.184 147.509 128.5C147.512 126.817 147.09 125.16 146.283 123.683C145.475 122.206 144.308 120.957 142.889 120.052H158.466C157.049 120.96 155.884 122.209 155.077 123.686C154.269 125.162 153.846 126.818 153.846 128.5C153.846 130.183 154.269 131.839 155.077 133.315C155.884 134.791 157.049 136.041 158.466 136.949V136.949Z" fill="url(#paint4_linear)"/>
<path d="M105.614 87.33L87.33 105.57C87.6242 97.6902 84.8816 90.4574 79.6322 85.208C74.2928 79.8686 66.9353 77.1448 58.9139 77.538L58.7549 77.3789L77.424 58.7098L77.598 59.5386C77.2059 67.5604 79.9149 74.2488 85.2535 79.5875C90.5036 84.8376 97.7346 87.6243 105.614 87.33Z" fill="url(#paint5_linear)"/>
<path d="M106.993 125.245L125.289 106.949C124.995 114.828 127.726 122.061 132.975 127.31C138.314 132.65 145.672 135.373 153.693 134.98L153.853 135.14L135.183 153.809L134.85 151.469C135.243 143.447 132.693 138.27 127.354 132.931C122.105 127.682 114.873 124.952 106.993 125.245Z" fill="url(#paint6_linear)"/>
</g>
<path d="M228.714 141.566H214.303V144.719H219.79V161.956H223.254V144.719H228.714V141.566Z" fill="black" fill-opacity="0.54"/>
<path d="M246.197 141.566V150.157H236.359V141.566H232.895V161.956H236.359V153.338H246.197V161.956H249.689V141.566H246.197Z" fill="black" fill-opacity="0.54"/>
<path d="M268.211 144.665V141.566H256.017V161.956H268.211V158.857H259.481V153.31H267.047V150.211H259.481V144.665H268.211Z" fill="black" fill-opacity="0.54"/>
<path d="M294.909 144.665V141.566H282.715V161.956H294.909V158.857H286.179V153.31H293.745V150.211H286.179V144.665H294.909Z" fill="black" fill-opacity="0.54"/>
<path d="M314.282 141.566L307.88 158.286L301.451 141.566H297.571L305.913 161.956H309.82L318.162 141.566H314.282Z" fill="black" fill-opacity="0.54"/>
<path d="M321.997 161.956H325.461V141.566H321.997V161.956Z" fill="black" fill-opacity="0.54"/>
<path d="M331.77 161.956H338.061C344.351 161.956 348.564 157.388 348.564 151.761C348.564 146.133 344.351 141.566 338.061 141.566H331.77V161.956ZM335.234 158.802V144.719H337.922C342.162 144.719 344.989 147.737 344.989 151.761C344.989 155.784 342.162 158.802 337.922 158.802H335.234Z" fill="black" fill-opacity="0.54"/>
<path d="M366.356 144.665V141.566H354.162V161.956H366.356V158.857H357.626V153.31H365.192V150.211H357.626V144.665H366.356Z" fill="black" fill-opacity="0.54"/>
<path d="M386.422 141.566V156.682L375.004 141.566H371.512V161.956H374.976V146.786L386.394 161.956H389.886V141.566H386.422Z" fill="black" fill-opacity="0.54"/>
<path d="M406.208 162.228C409.229 162.228 412.25 160.841 414.162 158.721L411.557 156.546C410.254 157.987 408.287 158.857 406.208 158.857C402.162 158.857 398.975 155.757 398.975 151.761C398.975 147.764 402.162 144.665 406.208 144.665C408.287 144.665 410.254 145.535 411.557 146.976L414.162 144.801C412.25 142.68 409.229 141.294 406.208 141.294C400.305 141.294 395.539 145.943 395.539 151.761C395.539 157.579 400.305 162.228 406.208 162.228Z" fill="black" fill-opacity="0.54"/>
<path d="M431.301 144.665V141.566H419.107V161.956H431.301V158.857H422.571V153.31H430.137V150.211H422.571V144.665H431.301Z" fill="black" fill-opacity="0.54"/>
<path d="M456.973 151.571C458.58 150.728 459.578 149.26 459.578 147.112C459.578 143.714 456.917 141.566 453.592 141.566H445.638V161.956H454.617C457.915 161.956 460.548 159.862 460.548 156.464C460.548 153.909 459.162 152.277 456.973 151.571ZM456.114 147.465C456.114 149.042 454.811 150.266 453.176 150.266H449.102V144.719H453.176C454.811 144.719 456.114 145.889 456.114 147.465ZM454.118 158.802H449.102V153.256H454.118C455.753 153.256 457.084 154.48 457.084 156.056C457.084 157.633 455.753 158.802 454.118 158.802Z" fill="black" fill-opacity="0.54"/>
<path d="M469.217 158.802V141.566H465.753V161.956H476.506V158.802H469.217Z" fill="black" fill-opacity="0.54"/>
<path d="M488.683 162.228C493.422 162.228 496.969 159.292 496.969 155.349V141.566H493.477V154.724C493.477 157.225 491.427 159.074 488.683 159.074C485.967 159.074 483.916 157.225 483.916 154.724V141.566H480.452V155.349C480.452 159.292 483.972 162.228 488.683 162.228Z" fill="black" fill-opacity="0.54"/>
<path d="M515.393 144.665V141.566H503.199V161.956H515.393V158.857H506.663V153.31H514.229V150.211H506.663V144.665H515.393Z" fill="black" fill-opacity="0.54"/>
<path d="M528.724 141.566H520.549V161.956H524.013V153.31H528.724C532.105 153.31 534.738 150.809 534.738 147.493C534.738 144.23 532.105 141.566 528.724 141.566ZM528.253 150.347H524.013V144.665H528.253C529.999 144.665 531.357 145.807 531.357 147.52C531.357 149.287 529.999 150.347 528.253 150.347Z" fill="black" fill-opacity="0.54"/>
<path d="M548.685 153.12C551.29 152.576 553.175 150.32 553.175 147.574C553.175 144.23 550.542 141.566 547.161 141.566H538.986V161.956H542.45V153.446H545.138L550.625 161.956H554.644L548.685 153.12ZM542.45 150.483V144.719H546.746C548.464 144.719 549.794 145.889 549.794 147.601C549.794 149.314 548.491 150.483 546.746 150.483H542.45Z" fill="black" fill-opacity="0.54"/>
<path d="M559.023 161.956H562.487V141.566H559.023V161.956Z" fill="black" fill-opacity="0.54"/>
<path d="M583.705 141.566V156.682L572.288 141.566H568.796V161.956H572.26V146.786L583.678 161.956H587.17V141.566H583.705Z" fill="black" fill-opacity="0.54"/>
<path d="M605.765 141.566H591.354V144.719H596.841V161.956H600.305V144.719H605.765V141.566Z" fill="black" fill-opacity="0.54"/>
<path d="M518.46 83.8093C522.968 81.1756 525.78 76.8902 525.78 70.3729C525.78 58.231 516.763 51.5352 505.246 51.5352H476.767V118.494H508.728C520.067 118.494 528.994 112.155 528.994 100.013C528.994 91.3087 524.798 86.2645 518.46 83.8093ZM509.353 71.8906C509.353 74.8368 507.746 77.783 502.657 77.783H493.372V65.9983H502.657C507.746 65.9983 509.353 68.9445 509.353 71.8906ZM493.372 104.031V91.1748H505.336C510.96 91.1748 512.389 94.3888 512.389 97.6028C512.389 100.817 510.96 104.031 505.336 104.031H493.372Z" fill="#387EE8"/>
<path d="M552.721 118.494V51.5352H536.651V118.494H552.721Z" fill="#387EE8"/>
<path d="M583.623 119.387C598.086 119.387 605.764 112.245 605.764 101.085V73.8548H589.694V99.0313C589.694 103.495 587.016 105.37 583.623 105.37C580.231 105.37 577.641 103.495 577.641 99.0313V73.8548H561.571V101.085C561.571 112.245 569.16 119.387 583.623 119.387Z" fill="#387EE8"/>
<path d="M262.103 105.723L221.214 51.3975H214.071V118.356H221.66V63.9857L262.46 118.356H269.602V51.3975H262.103V105.723Z" fill="#3C4D66"/>
<path d="M327.299 95.6796C327.031 82.8235 316.853 72.8243 304.086 72.8243C291.23 72.8243 280.874 83.1806 280.874 96.0367C280.874 108.893 291.23 119.249 304.086 119.249C312.925 119.249 320.514 114.428 324.352 107.018L317.567 104.34C314.71 108.982 309.711 111.928 304.086 111.928C295.649 111.928 288.73 105.5 288.239 97.1973H327.209L327.299 95.6796ZM304.086 80.1451C310.916 80.1451 316.719 84.4751 318.862 90.5014H289.221C291.453 84.3859 297.212 80.1451 304.086 80.1451Z" fill="#3C4D66"/>
<path d="M354.107 119.249C364.196 119.249 370.892 112.732 370.892 102.286V73.7171H363.571V101.483C363.571 108 359.732 111.928 354.107 111.928C348.572 111.928 344.555 108 344.555 101.483V73.7171H337.234V102.286C337.234 112.732 343.93 119.249 354.107 119.249Z" fill="#3C4D66"/>
<path d="M401.682 72.8243C396.281 72.8243 392.397 75.9044 390.076 80.7701V73.7171H382.755V118.356H390.076V94.519C390.076 86.3053 395.165 80.1451 401.861 80.1451C403.2 80.1451 404.718 80.5022 406.057 81.2165V73.7171C404.807 73.1814 403.289 72.8243 401.682 72.8243Z" fill="#3C4D66"/>
<path d="M434.168 119.249C447.024 119.249 457.38 108.893 457.38 96.0367C457.38 83.1806 447.024 72.8243 434.168 72.8243C421.312 72.8243 410.955 83.1806 410.955 96.0367C410.955 108.893 421.312 119.249 434.168 119.249ZM434.168 111.928C425.329 111.928 418.276 104.875 418.276 96.0367C418.276 87.1981 425.329 80.1451 434.168 80.1451C442.917 80.1451 450.059 87.1981 450.059 96.0367C450.059 104.875 442.917 111.928 434.168 111.928Z" fill="#3C4D66"/>
<path d="M617.667 106C621.349 106 624.333 108.985 624.333 112.667C624.333 116.349 621.349 119.333 617.667 119.333C613.985 119.333 611 116.349 611 112.667C611 108.985 613.985 106 617.667 106ZM617.667 107.333C616.252 107.333 614.896 107.895 613.895 108.895C612.895 109.896 612.333 111.252 612.333 112.667C612.333 114.081 612.895 115.438 613.895 116.438C614.896 117.438 616.252 118 617.667 118C619.081 118 620.438 117.438 621.438 116.438C622.438 115.438 623 114.081 623 112.667C623 111.252 622.438 109.896 621.438 108.895C620.438 107.895 619.081 107.333 617.667 107.333V107.333ZM618 109.333C618.509 109.333 619.004 109.5 619.41 109.807C619.816 110.115 620.11 110.546 620.247 111.037C620.385 111.527 620.358 112.048 620.171 112.522C619.985 112.996 619.648 113.395 619.213 113.66L620.912 116H619.264L617.811 114H616.333V116H615V109.333H618ZM618 110.667H616.333V112.667H618C618.249 112.667 618.488 112.574 618.672 112.407C618.856 112.24 618.971 112.01 618.995 111.763L619 111.667C619 111.401 618.895 111.147 618.707 110.96C618.52 110.772 618.265 110.667 618 110.667V110.667Z" fill="black" fill-opacity="0.38"/>
<defs>
<linearGradient id="paint0_linear" x1="150.677" y1="136.949" x2="150.677" y2="120.052" gradientUnits="userSpaceOnUse">
<stop stop-color="#335C98"/>
<stop offset="1" stop-color="#387EE8"/>
</linearGradient>
<linearGradient id="paint1_linear" x1="68.0885" y1="112.446" x2="98.7974" y2="143.443" gradientUnits="userSpaceOnUse">
<stop stop-color="#387EE8"/>
<stop offset="1" stop-color="#A7C7F8"/>
</linearGradient>
<linearGradient id="paint2_linear" x1="144.599" y1="100.156" x2="113.846" y2="69.2009" gradientUnits="userSpaceOnUse">
<stop stop-color="#387EE8"/>
<stop offset="1" stop-color="#A7C7F8"/>
</linearGradient>
<linearGradient id="paint3_linear" x1="61.9665" y1="75.6953" x2="63.3335" y2="92.4814" gradientUnits="userSpaceOnUse">
<stop stop-color="#335C98"/>
<stop offset="1" stop-color="#387EE8"/>
</linearGradient>
<linearGradient id="paint4_linear" x1="150.677" y1="136.949" x2="150.677" y2="120.052" gradientUnits="userSpaceOnUse">
<stop stop-color="#335C98"/>
<stop offset="1" stop-color="#387EE8"/>
</linearGradient>
<linearGradient id="paint5_linear" x1="73.0554" y1="72.5275" x2="98.5532" y2="86.3546" gradientUnits="userSpaceOnUse">
<stop stop-color="#335C98"/>
<stop offset="1" stop-color="#387EE8"/>
</linearGradient>
<linearGradient id="paint6_linear" x1="142.229" y1="138.005" x2="120.248" y2="131.11" gradientUnits="userSpaceOnUse">
<stop stop-color="#335C98"/>
<stop offset="1" stop-color="#387EE8"/>
</linearGradient>
<clipPath id="clip0">
<rect width="120.393" height="120.393" fill="white" transform="translate(46.125 46.125)"/>
</clipPath>
</defs>
</svg>
