<svg width="383" height="499" viewBox="0 0 383 499" fill="none" xmlns="http://www.w3.org/2000/svg">
<g style="mix-blend-mode:overlay" opacity="0.05">
<path d="M79.9982 131.715C115.196 133.446 144.935 106.513 146.423 71.5585C147.91 36.604 120.582 6.86473 85.3843 5.13392C50.1864 3.40311 20.4471 30.3362 18.9598 65.2907C17.4725 100.245 44.8003 129.984 79.9982 131.715Z" fill="#EEF4FE"/>
<path d="M72.0734 304.948C107.271 306.679 137.011 279.746 138.498 244.791C139.985 209.837 112.657 180.098 77.4595 178.367C42.2616 176.636 12.5223 203.569 11.035 238.524C9.54765 273.478 36.8755 303.217 72.0734 304.948Z" fill="#A7CAFF"/>
<path d="M64.1485 478.183C99.3464 479.914 129.086 452.981 130.573 418.026C132.06 383.072 104.732 353.332 69.5346 351.602C34.3366 349.871 4.59738 376.804 3.11005 411.758C1.62272 446.713 28.9505 476.452 64.1485 478.183Z" fill="#387EE8"/>
<path d="M253.231 139.64C288.429 141.371 318.169 114.438 319.656 79.4833C321.143 44.5288 293.815 14.7895 258.618 13.0587C223.42 11.3279 193.68 38.261 192.193 73.2155C190.706 108.17 218.034 137.909 253.231 139.64Z" fill="#387EE8"/>
<path d="M247.207 336.029C293.604 338.31 332.806 302.808 334.766 256.731C336.727 210.655 300.704 171.453 254.307 169.172C207.909 166.89 168.708 202.393 166.747 248.469C164.786 294.546 200.81 333.747 247.207 336.029Z" fill="#A7CAFF"/>
<path d="M237.38 486.108C272.578 487.838 302.317 460.905 303.804 425.951C305.292 390.997 277.964 361.257 242.766 359.526C207.568 357.796 177.829 384.729 176.341 419.683C174.854 454.638 202.182 484.377 237.38 486.108Z" fill="#387EE8"/>
<path d="M426.464 147.565C461.662 149.296 491.402 122.363 492.889 87.4081C494.376 52.4536 467.048 22.7143 431.851 20.9835C396.653 19.2527 366.913 46.1858 365.426 81.1403C363.939 116.095 391.267 145.834 426.464 147.565Z" fill="#387EE8"/>
<path d="M418.54 320.798C453.737 322.529 483.477 295.595 484.964 260.641C486.451 225.687 459.124 195.947 423.926 194.216C388.728 192.486 358.988 219.419 357.501 254.373C356.014 289.328 383.342 319.067 418.54 320.798Z" fill="#A7C7F8"/>
<path d="M410.615 494.033C445.813 495.763 475.552 468.83 477.039 433.876C478.527 398.921 451.199 369.182 416.001 367.451C380.803 365.72 351.064 392.654 349.576 427.608C348.089 462.563 375.417 492.302 410.615 494.033Z" fill="#EEF4FE"/>
<path d="M82.7774 140.578C82.7774 140.578 123.368 139.417 149.334 166.489C175.3 193.562 166.924 241.032 166.924 241.032L249.11 171.424C249.11 171.424 208.264 170.531 182.606 141.698C165.823 121.416 153.015 98.1638 144.858 73.1734L82.7774 140.578Z" fill="url(#paint0_linear)"/>
<path d="M40.4788 111.814C40.4788 111.814 67.3775 129.178 65.0003 152.569C62.6231 175.96 37.1322 190.465 37.1322 190.465L109.772 194.037C109.772 194.037 86.9284 177.449 87.8541 155.693C88.7798 133.938 120.559 113.844 120.559 113.844L40.4788 111.814Z" fill="url(#paint1_linear)"/>
<path d="M389.408 381.802C395.347 377.883 400.237 372.592 403.662 366.376C407.086 360.161 408.945 353.205 409.079 346.1C409.139 322.12 383.789 304.593 383.789 304.593L457.901 309.279C457.901 309.279 433.452 323.438 432.119 345.596C430.786 367.754 453.282 386.054 453.282 386.054L389.408 381.802Z" fill="url(#paint2_linear)"/>
<path d="M427.398 196.089C400.529 188.17 376.114 173.453 356.525 153.367C325.149 120.473 318.232 67.6831 318.232 67.6831L258.934 139.048C258.934 139.048 305.075 142.929 335.067 172.532C365.058 202.135 359.166 247.197 359.166 247.197L427.398 196.089Z" fill="url(#paint3_linear)"/>
<path d="M65.7477 303.976C94.3689 313.484 120.318 329.752 141.384 351.394C175.446 386.94 177.333 434.975 177.333 434.975L241.323 371.098C214.771 367.611 190.067 355.41 171.092 336.412C138.608 304.35 134.738 253.597 134.738 253.597L65.7477 303.976Z" fill="url(#paint4_linear)"/>
<path d="M414.877 368.363C414.877 368.363 374.282 369.52 348.32 342.451C322.358 315.383 330.751 267.889 330.751 267.889L248.561 337.492C248.561 337.492 289.423 338.402 315.049 367.202C331.832 387.484 344.64 410.736 352.797 435.727L414.877 368.363Z" fill="url(#paint5_linear)"/>
</g>
<defs>
<linearGradient id="paint0_linear" x1="217.115" y1="189.107" x2="117.834" y2="122.944" gradientUnits="userSpaceOnUse">
<stop stop-color="#A7CAFF"/>
<stop offset="1" stop-color="#EEF4FE"/>
</linearGradient>
<linearGradient id="paint1_linear" x1="77.4641" y1="184.618" x2="80.0499" y2="132.033" gradientUnits="userSpaceOnUse">
<stop stop-color="#A7CAFF"/>
<stop offset="1" stop-color="#EEF4FE"/>
</linearGradient>
<linearGradient id="paint2_linear" x1="407.794" y1="311.185" x2="413.154" y2="368.618" gradientUnits="userSpaceOnUse">
<stop stop-color="#A7C7F8"/>
<stop offset="1" stop-color="#EEF4FE"/>
</linearGradient>
<linearGradient id="paint3_linear" x1="297.498" y1="108.286" x2="404.967" y2="207.174" gradientUnits="userSpaceOnUse">
<stop stop-color="#387EE8"/>
<stop offset="1" stop-color="#A7CAFF"/>
</linearGradient>
<linearGradient id="paint4_linear" x1="198.346" y1="394.547" x2="88.1015" y2="293.272" gradientUnits="userSpaceOnUse">
<stop stop-color="#4588EC"/>
<stop offset="1" stop-color="#A7CAFF"/>
</linearGradient>
<linearGradient id="paint5_linear" x1="280.555" y1="319.809" x2="379.818" y2="385.964" gradientUnits="userSpaceOnUse">
<stop stop-color="#A7CAFF"/>
<stop offset="1" stop-color="#EEF4FE"/>
</linearGradient>
</defs>
</svg>
