<svg width="302" height="398" viewBox="0 0 302 398" fill="none" xmlns="http://www.w3.org/2000/svg">
<g style="mix-blend-mode:overlay" opacity="0.1">
<path d="M-41.7439 106.512C-12.3314 106.512 11.5121 82.6686 11.5121 53.2561C11.5121 23.8436 -12.3314 1.54539e-07 -41.7439 9.95559e-08C-71.1564 4.45727e-08 -95 23.8436 -95 53.2561C-95 82.6686 -71.1564 106.512 -41.7439 106.512Z" fill="#EEF4FE"/>
<path d="M-41.7439 251.756C-12.3314 251.756 11.5121 227.912 11.5121 198.5C11.5121 169.087 -12.3314 145.244 -41.7439 145.244C-71.1564 145.244 -95 169.087 -95 198.5C-95 227.912 -71.1564 251.756 -41.7439 251.756Z" fill="#A7CAFF"/>
<path d="M-41.7439 397.001C-12.3314 397.001 11.5121 373.158 11.5121 343.745C11.5121 314.333 -12.3314 290.489 -41.7439 290.489C-71.1564 290.489 -95 314.333 -95 343.745C-95 373.158 -71.1564 397.001 -41.7439 397.001Z" fill="#387EE8"/>
<path d="M103.5 106.512C132.913 106.512 156.756 82.6686 156.756 53.2561C156.756 23.8436 132.913 1.54539e-07 103.5 9.95559e-08C74.0876 4.45727e-08 50.244 23.8436 50.244 53.2561C50.244 82.6686 74.0876 106.512 103.5 106.512Z" fill="#387EE8"/>
<path d="M105.922 271.121C144.693 271.121 176.124 239.69 176.124 200.919C176.124 162.148 144.693 130.718 105.922 130.718C67.1514 130.718 35.7213 162.148 35.7213 200.919C35.7213 239.69 67.1514 271.121 105.922 271.121Z" fill="#A7CAFF"/>
<path d="M103.499 397.001C132.911 397.001 156.755 373.158 156.755 343.745C156.755 314.333 132.911 290.489 103.499 290.489C74.086 290.489 50.2425 314.333 50.2425 343.745C50.2425 373.158 74.086 397.001 103.499 397.001Z" fill="#387EE8"/>
<path d="M248.744 106.512C278.156 106.512 302 82.6686 302 53.2561C302 23.8436 278.156 1.54539e-07 248.744 9.95559e-08C219.331 4.45727e-08 195.488 23.8436 195.488 53.2561C195.488 82.6686 219.331 106.512 248.744 106.512Z" fill="#387EE8"/>
<path d="M248.744 251.756C278.156 251.756 302 227.912 302 198.5C302 169.087 278.156 145.244 248.744 145.244C219.331 145.244 195.488 169.087 195.488 198.5C195.488 227.912 219.331 251.756 248.744 251.756Z" fill="#A7C7F8"/>
<path d="M248.744 397.001C278.156 397.001 302 373.158 302 343.745C302 314.333 278.156 290.489 248.744 290.489C219.331 290.489 195.488 314.333 195.488 343.745C195.488 373.158 219.331 397.001 248.744 397.001Z" fill="#EEF4FE"/>
<path d="M-38.8839 113.86C-38.8839 113.86 -4.95097 111.205 17.74 132.795C40.4309 154.385 35.0997 194.475 35.0997 194.475L101.425 132.791C101.425 132.791 67.2064 133.736 44.7102 110.66C29.946 94.3746 18.4028 75.4384 10.6918 54.8538L-38.8839 113.86Z" fill="url(#paint0_linear)"/>
<path d="M226.854 303.903C231.667 300.369 235.557 295.724 238.192 290.365C240.827 285.006 242.13 279.09 241.99 273.119C241.189 252.986 219.43 239.319 219.43 239.319L281.395 240.193C281.395 240.193 261.51 253.089 261.184 271.745C260.859 290.401 280.266 304.836 280.266 304.836L226.854 303.903Z" fill="url(#paint1_linear)"/>
<path d="M251.503 146.641C228.726 141.122 207.763 129.806 190.651 113.794C163.216 87.5411 155.556 43.6083 155.556 43.6083L108.434 105.846C108.434 105.846 147.204 107.183 173.363 130.737C199.522 154.29 196.183 192.281 196.183 192.281L251.503 146.641Z" fill="url(#paint2_linear)"/>
<path d="M-46.8547 251.222C-22.5536 258.001 -0.250885 270.552 18.1539 287.808C47.9327 316.172 51.2132 356.332 51.2132 356.332L102.53 300.17C80.1751 298.35 59.0582 289.154 42.4981 274.026C14.1646 248.515 9.12693 206.16 9.12693 206.16L-46.8547 251.222Z" fill="url(#paint3_linear)"/>
<path d="M247.643 291.256C247.643 291.256 213.706 293.908 191.019 272.321C168.332 250.734 173.676 210.623 173.676 210.623L107.347 272.304C107.347 272.304 141.58 271.372 164.048 294.422C178.812 310.707 190.355 329.644 198.066 350.228L247.643 291.256Z" fill="url(#paint4_linear)"/>
</g>
<defs>
<linearGradient id="paint0_linear" x1="75.2715" y1="148.922" x2="-10.0202" y2="97.4022" gradientUnits="userSpaceOnUse">
<stop stop-color="#A7CAFF"/>
<stop offset="1" stop-color="#EEF4FE"/>
</linearGradient>
<linearGradient id="paint1_linear" x1="239.68" y1="243.862" x2="246.585" y2="291.798" gradientUnits="userSpaceOnUse">
<stop stop-color="#A7C7F8"/>
<stop offset="1" stop-color="#EEF4FE"/>
</linearGradient>
<linearGradient id="paint2_linear" x1="139.633" y1="78.4793" x2="233.077" y2="156.902" gradientUnits="userSpaceOnUse">
<stop stop-color="#387EE8"/>
<stop offset="1" stop-color="#A7CAFF"/>
</linearGradient>
<linearGradient id="paint3_linear" x1="67.3758" y1="321.595" x2="-28.4777" y2="241.283" gradientUnits="userSpaceOnUse">
<stop stop-color="#4588EC"/>
<stop offset="1" stop-color="#A7CAFF"/>
</linearGradient>
<linearGradient id="paint4_linear" x1="133.5" y1="256.173" x2="218.776" y2="307.687" gradientUnits="userSpaceOnUse">
<stop stop-color="#A7CAFF"/>
<stop offset="1" stop-color="#EEF4FE"/>
</linearGradient>
</defs>
</svg>
